<?xml version="1.0" encoding="UTF-8" standalone="no"?>
<!-- Created with Inkscape (http://www.inkscape.org/) -->

<svg
   width="845.49902"
   height="225"
   viewBox="0 0 223.70496 59.531248"
   version="1.1"
   id="svg1"
   inkscape:version="1.4.2 (ebf0e940d0, 2025-05-08)"
   sodipodi:docname="tnnee.svg"
   inkscape:export-filename="tnnee2.svg"
   inkscape:export-xdpi="60.476189"
   inkscape:export-ydpi="60.476189"
   xmlns:inkscape="http://www.inkscape.org/namespaces/inkscape"
   xmlns:sodipodi="http://sodipodi.sourceforge.net/DTD/sodipodi-0.dtd"
   xmlns="http://www.w3.org/2000/svg"
   xmlns:svg="http://www.w3.org/2000/svg">
  <sodipodi:namedview
     id="namedview1"
     pagecolor="#ffffff"
     bordercolor="#000000"
     borderopacity="0.25"
     inkscape:showpageshadow="2"
     inkscape:pageopacity="0.0"
     inkscape:pagecheckerboard="0"
     inkscape:deskcolor="#d1d1d1"
     inkscape:document-units="mm"
     inkscape:zoom="0.42500492"
     inkscape:cx="579.99328"
     inkscape:cy="331.76086"
     inkscape:window-width="3374"
     inkscape:window-height="1371"
     inkscape:window-x="0"
     inkscape:window-y="0"
     inkscape:window-maximized="1"
     inkscape:current-layer="svg1"
     showgrid="false" />
  <defs
     id="defs1" />
  <g
     id="g20"
     inkscape:label="letter-eaccute0"
     mask="none"
     style="display:inline">
    <path
       style="font-size:66.1458px;font-family:'Archivo Black';-inkscape-font-specification:'Archivo Black, ';stroke-width:0"
       d="m 253.00777,13.030613 h 39.35675 v 10.914056 h -24.73853 v 6.283851 h 21.16666 v 10.451036 h -21.16666 v 6.945309 h 25.20155 v 10.914056 h -39.81977 z"
       id="path20"
       inkscape:label="glyph-e" />
    <path
       style="font-size:66.1458px;font-family:'Archivo Black';-inkscape-font-specification:'Archivo Black, ';stroke-width:0"
       d="m 267.29526,8.7972815 6.08542,-8.7973911344 h 12.76613 l 0.1323,0.2645831944 -10.58333,8.53280794 z"
       id="path19"
       inkscape:label="glyph-accute" />
  </g>
  <path
     style="display:inline;fill:#000000;stroke:#000000;stroke-width:13.163;stroke-dasharray:none;stroke-opacity:1"
     d="m 237.09969,58.53894 v -34.925"
     id="path1"
     inkscape:label="glyph-i" />
  <rect
     style="display:none;fill:#ffffff;fill-opacity:1;stroke:none;stroke-width:13.163;stroke-dasharray:none;stroke-opacity:1"
     id="rect7"
     width="59.530998"
     height="59.53125"
     x="16.139849"
     y="-1.503982e-14" />
  <path
     style="font-size:66.1458px;font-family:'Archivo Black';-inkscape-font-specification:'Archivo Black, ';display:inline;stroke-width:0"
     d="m 203.9936,22.820191 q 9.59114,0 14.61821,4.497914 5.09323,4.497914 5.09323,13.758326 v 2.248957 h -26.19371 q 0,3.77031 1.65364,5.688538 1.71979,1.918229 5.3578,1.918229 3.30729,0 4.82864,-1.389062 1.5875,-1.389062 1.5875,-3.704165 h 12.76613 q 0,6.349997 -4.82864,9.92187 -4.82864,3.571873 -14.08905,3.571873 -9.72342,0 -15.08123,-4.497914 -5.3578,-4.56406 -5.3578,-13.758326 0,-8.995829 5.22551,-13.626035 5.22552,-4.630205 14.41977,-4.630205 z m 0.52917,8.400516 q -6.2177,0 -6.9453,5.886976 h 12.83228 q 0,-2.711978 -1.5875,-4.299477 -1.52136,-1.587499 -4.29948,-1.587499 z"
     id="path16"
     inkscape:label="letter-e1" />
  <path
     style="font-size:66.1458px;font-family:'Archivo Black';-inkscape-font-specification:'Archivo Black, ';display:inline;stroke-width:0"
     d="m 159.8744,22.820191 q 9.59114,0 14.61821,4.497914 5.09323,4.497914 5.09323,13.758326 v 2.248957 h -26.19372 q 0,3.77031 1.65364,5.688538 1.71979,1.918229 5.35781,1.918229 3.30729,0 4.82864,-1.389062 1.5875,-1.389062 1.5875,-3.704165 h 12.76613 q 0,6.349997 -4.82864,9.92187 -4.82865,3.571873 -14.08905,3.571873 -9.72342,0 -15.08123,-4.497914 -5.35781,-4.56406 -5.35781,-13.758326 0,-8.995829 5.22552,-13.626035 5.22552,-4.630205 14.41977,-4.630205 z m 0.52917,8.400516 q -6.21771,0 -6.9453,5.886976 h 12.83227 q 0,-2.711978 -1.5875,-4.299477 -1.52135,-1.587499 -4.29947,-1.587499 z"
     id="path15"
     inkscape:label="letter-e0" />
  <path
     style="font-size:66.1458px;font-family:'Archivo Black';-inkscape-font-specification:'Archivo Black, ';stroke-width:0"
     d="M 119.85621,58.538921 V 45.375908 h 14.0229 v 13.163013 z"
     id="letter-dot0"
     inkscape:label="letter-dot0" />
  <path
     style="font-size:66.1458px;font-family:'Archivo Black';-inkscape-font-specification:'Archivo Black, ';display:inline;stroke-width:0"
     d="m 99.747901,22.820191 q 6.085409,0 9.128109,3.373435 3.04271,3.373436 3.04271,9.723433 V 58.538921 H 98.755715 V 37.504558 q 0,-2.248957 -1.190623,-3.571873 -1.124479,-1.389062 -3.241142,-1.389062 -2.447394,0 -3.968746,1.587499 -1.521352,1.587499 -1.521352,3.902602 V 58.538921 H 75.670846 V 23.61394 h 10.781759 l 0.859894,5.291664 q 2.050519,-2.778124 5.357807,-4.431768 3.373434,-1.653645 7.077595,-1.653645 z"
     id="path13"
     inkscape:label="letter-n1" />
  <path
     style="font-size:66.1458px;font-family:'Archivo Black';-inkscape-font-specification:'Archivo Black, ';display:inline;stroke-width:0"
     d="m 55.628695,22.820191 q 6.08541,0 9.128114,3.373435 3.042705,3.373436 3.042705,9.723433 V 58.538921 H 54.636508 V 37.504558 q 0,-2.248957 -1.190623,-3.571873 -1.124478,-1.389062 -3.241142,-1.389062 -2.447394,0 -3.968746,1.587499 -1.521352,1.587499 -1.521352,3.902602 V 58.538921 H 31.551639 V 23.61394 h 10.781759 l 0.859894,5.291664 q 2.050519,-2.778124 5.357807,-4.431768 3.373434,-1.653645 7.077596,-1.653645 z"
     id="path12"
     inkscape:label="letter-n0" />
  <path
     style="font-size:66.1458px;font-family:'Archivo Black';-inkscape-font-specification:'Archivo Black, ';stroke-width:0"
     d="m 25.466214,23.61394 v 8.929683 H 18.05789 v 13.295305 q 0,2.381249 0.793748,3.505727 0.79375,1.058333 2.910414,1.058333 h 3.704162 v 7.739059 q -1.587498,0.529166 -4.101036,0.859895 -2.51354,0.330729 -4.365621,0.330729 -5.820826,0 -8.9958224,-2.116666 Q 4.894884,55.09934 4.894884,50.006113 V 32.543623 H 9.7934723e-5 V 23.61394 H 5.4240499 L 8.2683176,13.030613 H 18.05789 V 23.61394 Z"
     id="letter-t0"
     inkscape:label="letter-t0" />
</svg>
