<?xml version="1.0" encoding="UTF-8" standalone="no"?>
<!-- Created with Inkscape (http://www.inkscape.org/) -->

<svg
   width="188.75"
   height="177.99899"
   viewBox="0 0 49.940106 47.095565"
   version="1.1"
   id="svg1"
   xmlns="http://www.w3.org/2000/svg"
   xmlns:svg="http://www.w3.org/2000/svg">
  <defs
     id="defs1" />
  <path
     style="font-size:66.1458px;font-family:'Archivo Black';-inkscape-font-specification:'Archivo Black, ';display:inline;stroke-width:0"
     d="m 24.93689,5.2915457 q 9.59114,0 14.61821,4.497914 5.09323,4.4979143 5.09323,13.7583263 v 2.248957 H 18.45461 q 0,3.77031 1.65364,5.688538 1.71979,1.918229 5.35781,1.918229 3.30729,0 4.82864,-1.389062 1.5875,-1.389062 1.5875,-3.704165 h 12.76613 q 0,6.349997 -4.82864,9.92187 -4.82865,3.571873 -14.08905,3.571873 -9.72342,0 -15.08123,-4.497914 -5.3578103,-4.56406 -5.3578103,-13.758326 0,-8.995829 5.2255203,-13.6260353 5.22552,-4.630205 14.41977,-4.630205 z m 0.52917,8.4005163 q -6.21771,0 -6.9453,5.886976 h 12.83227 q 0,-2.711978 -1.5875,-4.299477 -1.52135,-1.587499 -4.29947,-1.587499 z"
     id="path15" />
</svg>
